<svg width="23" height="30" viewBox="0 0 23 30" fill="none" xmlns="http://www.w3.org/2000/svg">
<path d="M10.1714 28C10.1714 28.8284 10.843 29.5 11.6714 29.5C12.4998 29.5 13.1714 28.8284 13.1714 28H10.1714ZM12.732 0.939341C12.1463 0.353554 11.1965 0.353554 10.6107 0.939341L1.06479 10.4853C0.478998 11.0711 0.478998 12.0208 1.06479 12.6066C1.65057 13.1924 2.60032 13.1924 3.18611 12.6066L11.6714 4.12132L20.1567 12.6066C20.7425 13.1924 21.6922 13.1924 22.278 12.6066C22.8638 12.0208 22.8638 11.0711 22.278 10.4853L12.732 0.939341ZM13.1714 28L13.1714 2H10.1714L10.1714 28H13.1714Z" fill="black"/>
</svg>
