<svg width="14" height="16" viewBox="0 0 14 16" fill="none" xmlns="http://www.w3.org/2000/svg">
<path d="M4.83334 11.75L7.00001 9.58333L9.16668 11.75L10.3333 10.5833L8.16668 8.41667L10.3333 6.25L9.16668 5.08333L7.00001 7.25L4.83334 5.08333L3.66668 6.25L5.83334 8.41667L3.66668 10.5833L4.83334 11.75ZM2.83334 15.5C2.37501 15.5 1.98279 15.3369 1.65668 15.0108C1.33001 14.6842 1.16668 14.2917 1.16668 13.8333V3H0.333344V1.33333H4.50001V0.5H9.50001V1.33333H13.6667V3H12.8333V13.8333C12.8333 14.2917 12.6703 14.6842 12.3442 15.0108C12.0175 15.3369 11.625 15.5 11.1667 15.5H2.83334Z" fill="black"/>
</svg>
