<svg width="136" height="159" viewBox="0 0 136 159" fill="none" xmlns="http://www.w3.org/2000/svg">
<mask id="path-1-inside-1_7_652" fill="white">
<path d="M123.501 0.913545C87.9406 11.0636 56.7377 31.8752 34.4995 60.2753C12.2613 88.6753 0.16673 123.158 0.00171029 158.632L40.4041 158.804C40.5306 131.615 49.8006 105.185 66.8452 83.4175C83.8898 61.6501 107.806 45.6988 135.061 37.9193L123.501 0.913545Z"/>
</mask>
<path d="M123.501 0.913545C87.9406 11.0636 56.7377 31.8752 34.4995 60.2753C12.2613 88.6753 0.16673 123.158 0.00171029 158.632L40.4041 158.804C40.5306 131.615 49.8006 105.185 66.8452 83.4175C83.8898 61.6501 107.806 45.6988 135.061 37.9193L123.501 0.913545Z" stroke="#3949AB" stroke-width="48" mask="url(#path-1-inside-1_7_652)"/>
</svg>
